<svg t="1647152323566" class="icon" viewBox="0 0 1024 1024" version="1.1" xmlns="http://www.w3.org/2000/svg" p-id="25257" width="150" height="150"><path d="M989.866667 153.6c-17.066667-22.755556-45.511111-34.133333-68.266667-34.133333H187.733333v-17.066667C182.044444 45.511111 136.533333 0 79.644444 0H34.133333C17.066667 0 0 17.066667 0 39.822222s17.066667 39.822222 34.133333 39.822222h45.511111c17.066667-5.688889 34.133333 11.377778 39.822223 34.133334l34.133333 221.866666 62.577778 472.177778c5.688889 39.822222 28.444444 73.955556 62.577778 91.022222-11.377778 11.377778-17.066667 28.444444-17.066667 45.511112 0 39.822222 34.133333 68.266667 68.266667 68.266666S398.222222 984.177778 398.222222 944.355556c0-11.377778-5.688889-22.755556-11.377778-34.133334h392.533334c-5.688889 11.377778-11.377778 22.755556-11.377778 34.133334 0 39.822222 34.133333 68.266667 68.266667 68.266666s68.266667-34.133333 68.266666-68.266666c0-11.377778-5.688889-22.755556-11.377777-34.133334h17.066666c17.066667 0 34.133333-17.066667 34.133334-39.822222s-17.066667-39.822222-34.133334-39.822222H318.577778c-17.066667 0-34.133333-17.066667-34.133334-34.133334l-5.688888-39.822222 580.266666-45.511111c51.2 0 96.711111-45.511111 102.4-96.711111l56.888889-358.4c5.688889-39.822222-5.688889-73.955556-28.444444-102.4zM460.8 403.911111l113.777778-113.777778c5.688889-5.688889 11.377778-5.688889 17.066666-5.688889s11.377778 0 17.066667 5.688889l125.155556 119.466667c5.688889 5.688889 5.688889 17.066667 5.688889 22.755556 0 11.377778-11.377778 17.066667-17.066667 17.066666-11.377778 0-17.066667 0-22.755556-5.688889l-79.644444-79.644444v187.733333c0 11.377778-11.377778 22.755556-22.755556 22.755556-17.066667 0-28.444444-11.377778-28.444444-22.755556V364.088889L494.933333 438.044444c-11.377778 5.688889-22.755556 5.688889-34.133333 0-5.688889-11.377778-5.688889-28.444444 0-34.133333z" p-id="25258" fill="#e6e6e6"></path></svg>