<svg t="1647152254625" class="icon" viewBox="0 0 1247 1024" version="1.1" xmlns="http://www.w3.org/2000/svg" p-id="23702" width="150" height="150"><path d="M962.359014 630.402567l233.99867 0 0 72.310831L962.359014 702.713398 962.359014 630.402567z" p-id="23703" fill="#e6e6e6"></path><path d="M845.358946 413.471542l350.997272 0 0 72.310831L845.358946 485.782372 845.358946 413.471542z" p-id="23704" fill="#e6e6e6"></path><path d="M845.358946 196.540516l350.997272 0 0 72.310831L845.358946 268.851347 845.358946 196.540516z" p-id="23705" fill="#e6e6e6"></path><path d="M471.821937 521.937788c136.772951 0 247.649559-107.452516 247.649559-240.001834S608.594888 41.935587 471.821937 41.935587s-247.651026 107.451049-247.651026 240.000367S335.048986 521.937788 471.821937 521.937788" p-id="23706" fill="#e6e6e6"></path><path d="M902.786567 676.915347c-14.371209-112.15294-101.808779-187.720619-183.969375-187.720619-49.335381 0-106.429983 75.943244-234.613364 75.943244s-191.747668-75.943244-242.105582-75.943244c-93.886716 0-162.113284 75.619026-176.477158 187.720619l-13.080206 102.075782c-14.369742 112.15294 62.662052 202.979393 172.043736 202.979393L743.823037 981.970521c109.45357 0 186.40761-90.876332 172.043736-202.979393L902.786567 676.915347" p-id="23707" fill="#e6e6e6"></path></svg>