<svg t="1647152037848" class="icon" viewBox="0 0 1024 1024" version="1.1" xmlns="http://www.w3.org/2000/svg" p-id="20372" width="150" height="150"><path d="M621.978667 0.0672c45.687467 0 82.2176 37.7568 82.944 83.931733l0.010666 1.4016v42.666667h85.333334c76.583467 0 138.666667 62.0832 138.666666 138.666667v553.6c0 76.583467-62.0832 138.666667-138.666666 138.666666h-21.333334v32c0 17.672533-14.3264 32-32 32-17.6736 0-32-14.327467-32-32v-32h-384v32c0 17.672533-14.3264 32-32 32-17.6736 0-32-14.327467-32-32v-32h-22.4c-76.583467 0-138.666667-62.0832-138.666666-138.666666v-553.6c0-76.584533 62.0832-138.666667 138.666666-138.666667h86.4v-42.666667c0-46.343467 36.0736-84.562133 81.573334-85.322666l1.3824-0.010667h218.0896z m-269.045334 317.866667c-17.6736 0-32 14.325333-32 32v386.133333c0 17.672533 14.3264 32 32 32 17.6736 0 32-14.327467 32-32v-386.133333c0-17.674667-14.3264-32-32-32z m320 0c-17.6736 0-32 14.325333-32 32v386.133333c0 17.672533 14.3264 32 32 32 17.6736 0 32-14.327467 32-32v-386.133333c0-17.674667-14.3264-32-32-32z m-50.955733-253.866667H403.888c-10.023467 0-18.762667 9.0336-18.951467 20.938667l-0.0032 0.394666v42.666667h256v-42.666667c0-11.968-8.6304-21.133867-18.625066-21.330133l-0.330667-0.0032z" fill="#e6e6e6" p-id="20373"></path></svg>