<svg t="1647152153340" class="icon" viewBox="0 0 1024 1024" version="1.1" xmlns="http://www.w3.org/2000/svg" p-id="22138" width="150" height="150"><path d="M903.872912 0H120.127088A120.127088 120.127088 0 0 0 0 120.127088v783.745824a120.127088 120.127088 0 0 0 120.127088 120.127088h783.745824a120.127088 120.127088 0 0 0 120.127088-120.127088V120.127088A120.127088 120.127088 0 0 0 903.872912 0zM198.126273 822.953971a61.731976 61.731976 0 1 1 61.731975-61.731975 61.731976 61.731976 0 0 1-61.731975 61.731975z m0-250.264765a61.731976 61.731976 0 1 1 61.731975-61.731976 61.731976 61.731976 0 0 1-61.731975 62.566192z m0-250.264766a61.731976 61.731976 0 1 1 61.731975-60.063544 61.731976 61.731976 0 0 1-61.731975 61.731976z m654.025254 467.578004H365.386558a35.454175 35.454175 0 1 1 0-70.491242h486.764969a35.454175 35.454175 0 1 1 0 70.491242z m0-250.264766H365.386558a35.454175 35.454175 0 0 1 0-70.491242h486.764969a35.454175 35.454175 0 1 1 0 70.491242z m0-250.264766H365.386558a35.454175 35.454175 0 1 1 0-70.491242h486.764969a35.454175 35.454175 0 1 1 0 70.491242z" fill="#e6e6e6" p-id="22139"></path></svg>