<svg t="1650620936026" class="icon" viewBox="0 0 1024 1024" version="1.1" xmlns="http://www.w3.org/2000/svg" p-id="2847" width="150" height="150"><path d="M128 920V128h792v792H128z m301.12-337.216l132.032 105.216 185.6-208.32-49.472-43.328-144.384 160.896-132.032-105.216-185.6 208.32 49.472 43.328 144.384-160.896z m408.32-223.808a50.688 50.688 0 0 0-14.912-34.56 46.912 46.912 0 0 0-34.56-13.888 46.912 46.912 0 0 0-34.56 13.952 46.912 46.912 0 0 0-13.888 34.56c0 13.696 4.672 25.216 13.952 34.56a46.912 46.912 0 0 0 34.56 13.888 46.912 46.912 0 0 0 34.56-13.952 50.688 50.688 0 0 0 14.912-34.56z" p-id="2848" fill="#e6e6e6"></path></svg>