<svg t="1650618402931" class="icon" viewBox="0 0 1024 1024" version="1.1" xmlns="http://www.w3.org/2000/svg" p-id="2649" width="150" height="150"><path d="M863.104 518.528H505.472V160.896a8 8 0 0 0-8-8h-25.984a397.44 397.44 0 0 0-282.496 116.992 397.44 397.44 0 0 0-116.992 282.624 397.44 397.44 0 0 0 116.992 282.496 397.44 397.44 0 0 0 127.04 85.568c49.28 20.928 101.696 31.552 155.52 31.552a397.44 397.44 0 0 0 282.56-117.056 397.44 397.44 0 0 0 85.568-126.976c20.928-49.28 31.552-101.696 31.552-155.584v-25.984a8.192 8.192 0 0 0-8.128-8z m87.872-55.552l-2.56-28.16A398.528 398.528 0 0 0 588.416 75.52l-28.288-2.56a7.936 7.936 0 0 0-8.704 7.872V464.64c0 4.48 3.584 8 8 8l383.552-0.96a8.064 8.064 0 0 0 8-8.64z" fill="#e6e6e6" p-id="2650"></path></svg>