<svg t="1650620897565" class="icon" viewBox="0 0 1024 1024" version="1.1" xmlns="http://www.w3.org/2000/svg" p-id="2649" width="150" height="150"><path d="M801.893 64.347H221.707c-50.383 0-91.373 40.99-91.373 91.373v712.797c0 50.383 40.99 91.373 91.373 91.373h580.185c50.383 0 91.373-40.99 91.373-91.373V155.72c0.001-50.383-40.989-91.373-91.372-91.373zM238.546 844.541c0 7.968-6.459 14.427-14.427 14.427s-14.427-6.459-14.427-14.427v-516.55c0-7.968 6.459-14.427 14.427-14.427s14.427 6.459 14.427 14.427v516.55z m141.885 0c0 7.968-6.459 14.427-14.427 14.427s-14.427-6.459-14.427-14.427V615.99c0-7.968 6.459-14.427 14.427-14.427s14.427 6.459 14.427 14.427v228.551z m141.884 0c0 7.968-6.459 14.427-14.427 14.427s-14.427-6.459-14.427-14.427V512.118c0-7.968 6.459-14.427 14.427-14.427s14.427 6.459 14.427 14.427v332.423z m141.886 0c0 7.968-6.459 14.427-14.427 14.427s-14.427-6.459-14.427-14.427V153.493c0-7.968 6.459-14.427 14.427-14.427s14.427 6.459 14.427 14.427v691.048z m141.885 0c0 7.968-6.459 14.427-14.427 14.427s-14.427-6.459-14.427-14.427V423.715c0-7.968 6.459-14.427 14.427-14.427s14.427 6.459 14.427 14.427v420.826z" fill="#e6e6e6" p-id="2650"></path></svg>