<svg t="1647153068640" class="icon" viewBox="0 0 1024 1024" version="1.1" xmlns="http://www.w3.org/2000/svg" p-id="30671" width="150" height="150"><path d="M579.657143 47.542857l396.8 396.8c14.628571 14.628571 14.628571 38.4 0 53.028572-7.314286 7.314286-16.457143 10.971429-25.6 10.971428s-18.285714-3.657143-25.6-10.971428l-25.6-25.6-427.885714 426.057142c-95.085714 95.085714-248.685714 95.085714-343.771429 0l-1.828571-1.828571c-95.085714-95.085714-95.085714-248.685714 0-343.771429L552.228571 124.342857l-25.6-25.6c-14.628571-14.628571-14.628571-38.4 0-53.028571 14.628571-12.8 38.4-12.8 53.028572 1.828571zM393.142857 484.571429c-25.6 0-47.542857 21.942857-47.542857 47.542857 0 25.6 21.942857 47.542857 47.542857 47.542857 25.6 0 47.542857-21.942857 47.542857-47.542857 0-25.6-21.942857-47.542857-47.542857-47.542857z m157.257143-204.8c-53.028571 0-95.085714 42.057143-95.085714 95.085714s42.057143 95.085714 95.085714 95.085714 95.085714-42.057143 95.085714-95.085714-43.885714-95.085714-95.085714-95.085714z" fill="#e6e6e6" p-id="30672"></path></svg>