<?xml version="1.0" standalone="no"?><!DOCTYPE svg PUBLIC "-//W3C//DTD SVG 1.1//EN" "http://www.w3.org/Graphics/SVG/1.1/DTD/svg11.dtd"><svg t="1647150893281" class="icon" viewBox="0 0 1024 1024" version="1.1" xmlns="http://www.w3.org/2000/svg" p-id="11673" xmlns:xlink="http://www.w3.org/1999/xlink" width="150" height="150"><defs><style type="text/css"></style></defs><path d="M745.813 87.177c12.15-21.045 39.06-28.256 60.105-16.105l48.112 27.777c21.044 12.15 28.255 39.06 16.105 60.105l-72.997 126.432H958c24.3 0 44 19.7 44 44V930.45c0 24.3-19.7 44-44 44H66c-24.3 0-44-19.7-44-44V329.387c0-24.3 19.7-44 44-44h164.689l-72.996-126.433c-12.15-21.045-4.94-47.955 16.106-60.105l48.111-27.777c21.045-12.15 47.955-4.94 60.105 16.105l114.437 198.21h234.923z m-339.11 379.485c-24.057 0-43.605 19.308-43.994 43.273l-0.006 0.727v239.469a44 44 0 0 0 4.645 19.677c10.76 21.518 36.77 30.368 58.38 19.998l0.653-0.32L665.849 669.75a44 44 0 0 0 19.677-19.677c10.76-21.518 2.232-47.637-19.029-58.702l-0.648-0.33-239.468-119.735a44 44 0 0 0-19.678-4.645z" fill="#e6e6e6" p-id="11674"></path></svg>